<mxfile host="Electron" agent="Mozilla/5.0 (Macintosh; Intel Mac OS X 10_15_7) AppleWebKit/537.36 (KHTML, like Gecko) draw.io/27.0.9 Chrome/134.0.6998.205 Electron/35.4.0 Safari/537.36" version="27.0.9">
  <diagram name="Page-1" id="CoMg7gB1gvz_1CnpxJJc">
    <mxGraphModel dx="1013" dy="778" grid="1" gridSize="10" guides="1" tooltips="1" connect="1" arrows="1" fold="1" page="1" pageScale="1" pageWidth="827" pageHeight="1169" math="0" shadow="0">
      <root>
        <mxCell id="0" />
        <mxCell id="1" parent="0" />
        <mxCell id="_dXpNEuKJ4LGSrz3KsNT-9" value="" style="rounded=1;arcSize=10;dashed=1;fillColor=none;gradientColor=none;dashPattern=8 3 1 3;strokeWidth=2;strokeColor=#B9E0A5;" parent="1" vertex="1">
          <mxGeometry x="110" y="420" width="450" height="150" as="geometry" />
        </mxCell>
        <mxCell id="_dXpNEuKJ4LGSrz3KsNT-1" value="&lt;span&gt;User&lt;/span&gt;" style="sketch=0;outlineConnect=0;fontColor=#232F3E;gradientColor=none;fillColor=#232F3D;strokeColor=none;dashed=0;verticalLabelPosition=bottom;verticalAlign=top;align=center;html=1;fontSize=12;fontStyle=0;aspect=fixed;pointerEvents=1;shape=mxgraph.aws4.user;" parent="1" vertex="1">
          <mxGeometry x="200" y="240" width="78" height="78" as="geometry" />
        </mxCell>
        <mxCell id="_dXpNEuKJ4LGSrz3KsNT-2" value="" style="endArrow=none;html=1;rounded=0;endFill=1;edgeStyle=orthogonalEdgeStyle;startFill=0;" parent="1" source="_dXpNEuKJ4LGSrz3KsNT-1" edge="1">
          <mxGeometry width="50" height="50" relative="1" as="geometry">
            <mxPoint x="414" y="360" as="sourcePoint" />
            <mxPoint x="414" y="420" as="targetPoint" />
            <Array as="points">
              <mxPoint x="414" y="280" />
            </Array>
          </mxGeometry>
        </mxCell>
        <mxCell id="_dXpNEuKJ4LGSrz3KsNT-4" value="&lt;br&gt;&lt;div&gt;&lt;/div&gt;" style="verticalLabelPosition=bottom;aspect=fixed;html=1;shape=mxgraph.salesforce.web2;" parent="1" vertex="1">
          <mxGeometry x="364" y="430" width="100" height="100" as="geometry" />
        </mxCell>
        <mxCell id="_dXpNEuKJ4LGSrz3KsNT-5" value="Website" style="text;html=1;align=center;verticalAlign=middle;resizable=0;points=[];autosize=1;strokeColor=none;fillColor=none;" parent="1" vertex="1">
          <mxGeometry x="379" y="530" width="70" height="30" as="geometry" />
        </mxCell>
        <mxCell id="_dXpNEuKJ4LGSrz3KsNT-10" style="edgeStyle=orthogonalEdgeStyle;rounded=0;orthogonalLoop=1;jettySize=auto;html=1;endArrow=block;endFill=1;" parent="1" source="_dXpNEuKJ4LGSrz3KsNT-6" target="_dXpNEuKJ4LGSrz3KsNT-5" edge="1">
          <mxGeometry relative="1" as="geometry" />
        </mxCell>
        <mxCell id="_dXpNEuKJ4LGSrz3KsNT-11" value="REST API" style="edgeLabel;html=1;align=center;verticalAlign=middle;resizable=0;points=[];" parent="_dXpNEuKJ4LGSrz3KsNT-10" vertex="1" connectable="0">
          <mxGeometry x="-0.0429" relative="1" as="geometry">
            <mxPoint as="offset" />
          </mxGeometry>
        </mxCell>
        <mxCell id="_dXpNEuKJ4LGSrz3KsNT-6" value="Node.JS" style="outlineConnect=0;dashed=0;verticalLabelPosition=bottom;verticalAlign=top;align=center;html=1;shape=mxgraph.aws3.android;fillColor=#8CC64F;gradientColor=none;" parent="1" vertex="1">
          <mxGeometry x="361" y="670" width="106" height="120" as="geometry" />
        </mxCell>
        <mxCell id="_dXpNEuKJ4LGSrz3KsNT-7" value="&lt;b&gt;&lt;font style=&quot;font-size: 16px;&quot;&gt;Frontend&lt;/font&gt;&lt;/b&gt;&lt;div&gt;&lt;b&gt;&lt;font style=&quot;font-size: 16px;&quot;&gt;Port 8080&lt;/font&gt;&lt;/b&gt;&lt;/div&gt;" style="text;html=1;align=center;verticalAlign=middle;resizable=0;points=[];autosize=1;strokeColor=none;fillColor=none;" parent="1" vertex="1">
          <mxGeometry x="155" y="455" width="100" height="50" as="geometry" />
        </mxCell>
        <mxCell id="_dXpNEuKJ4LGSrz3KsNT-12" value="" style="rounded=1;arcSize=10;dashed=1;fillColor=none;gradientColor=none;dashPattern=8 3 1 3;strokeWidth=2;strokeColor=#EA6B66;" parent="1" vertex="1">
          <mxGeometry x="120" y="650" width="440" height="170" as="geometry" />
        </mxCell>
        <mxCell id="_dXpNEuKJ4LGSrz3KsNT-13" value="&lt;b&gt;&lt;font style=&quot;font-size: 16px;&quot;&gt;Backend&lt;/font&gt;&lt;/b&gt;&lt;div&gt;&lt;b&gt;&lt;font style=&quot;font-size: 16px;&quot;&gt;Port 3000&lt;/font&gt;&lt;/b&gt;&lt;/div&gt;" style="text;html=1;align=center;verticalAlign=middle;resizable=0;points=[];autosize=1;strokeColor=none;fillColor=none;" parent="1" vertex="1">
          <mxGeometry x="155" y="690" width="100" height="50" as="geometry" />
        </mxCell>
        <mxCell id="_dXpNEuKJ4LGSrz3KsNT-19" style="edgeStyle=orthogonalEdgeStyle;shape=connector;rounded=0;orthogonalLoop=1;jettySize=auto;html=1;strokeColor=default;align=center;verticalAlign=middle;fontFamily=Helvetica;fontSize=11;fontColor=default;labelBackgroundColor=default;endArrow=block;endFill=1;" parent="1" source="_dXpNEuKJ4LGSrz3KsNT-14" edge="1">
          <mxGeometry relative="1" as="geometry">
            <mxPoint x="970" y="730" as="targetPoint" />
          </mxGeometry>
        </mxCell>
        <mxCell id="_dXpNEuKJ4LGSrz3KsNT-23" value="SQL seed&amp;nbsp;&lt;div&gt;+ schema&lt;/div&gt;" style="edgeLabel;html=1;align=center;verticalAlign=middle;resizable=0;points=[];fontFamily=Helvetica;fontSize=11;fontColor=default;labelBackgroundColor=default;" parent="_dXpNEuKJ4LGSrz3KsNT-19" vertex="1" connectable="0">
          <mxGeometry x="-0.1034" y="1" relative="1" as="geometry">
            <mxPoint as="offset" />
          </mxGeometry>
        </mxCell>
        <mxCell id="_dXpNEuKJ4LGSrz3KsNT-24" style="edgeStyle=orthogonalEdgeStyle;shape=connector;rounded=0;orthogonalLoop=1;jettySize=auto;html=1;strokeColor=default;align=center;verticalAlign=middle;fontFamily=Helvetica;fontSize=11;fontColor=default;labelBackgroundColor=default;endArrow=block;endFill=1;" parent="1" source="_dXpNEuKJ4LGSrz3KsNT-14" edge="1">
          <mxGeometry relative="1" as="geometry">
            <mxPoint x="803.0699999999999" y="880" as="targetPoint" />
          </mxGeometry>
        </mxCell>
        <mxCell id="_dXpNEuKJ4LGSrz3KsNT-14" value="TiDB" style="shape=image;verticalLabelPosition=bottom;labelBackgroundColor=none;verticalAlign=top;aspect=fixed;imageAspect=0;image=https://dbdb.io/media/logos/tidb-logo_preview.png;clipPath=inset(0% 59.67% 0% 0%);" parent="1" vertex="1">
          <mxGeometry x="750" y="680" width="106.14" height="100" as="geometry" />
        </mxCell>
        <mxCell id="_dXpNEuKJ4LGSrz3KsNT-15" style="edgeStyle=orthogonalEdgeStyle;rounded=0;orthogonalLoop=1;jettySize=auto;html=1;entryX=0.795;entryY=0.471;entryDx=0;entryDy=0;entryPerimeter=0;endArrow=none;endFill=1;startArrow=block;startFill=1;" parent="1" source="_dXpNEuKJ4LGSrz3KsNT-14" target="_dXpNEuKJ4LGSrz3KsNT-12" edge="1">
          <mxGeometry relative="1" as="geometry" />
        </mxCell>
        <mxCell id="_dXpNEuKJ4LGSrz3KsNT-16" value="" style="image;sketch=0;aspect=fixed;html=1;points=[];align=center;fontSize=12;image=img/lib/mscae/Docker.svg;fontFamily=Helvetica;fontColor=default;labelBackgroundColor=default;" parent="1" vertex="1">
          <mxGeometry x="430" y="495" width="50" height="41" as="geometry" />
        </mxCell>
        <mxCell id="_dXpNEuKJ4LGSrz3KsNT-17" value="" style="image;sketch=0;aspect=fixed;html=1;points=[];align=center;fontSize=12;image=img/lib/mscae/Docker.svg;fontFamily=Helvetica;fontColor=default;labelBackgroundColor=default;" parent="1" vertex="1">
          <mxGeometry x="417" y="749" width="50" height="41" as="geometry" />
        </mxCell>
        <mxCell id="_dXpNEuKJ4LGSrz3KsNT-18" value="" style="image;sketch=0;aspect=fixed;html=1;points=[];align=center;fontSize=12;image=img/lib/mscae/Docker.svg;fontFamily=Helvetica;fontColor=default;labelBackgroundColor=default;" parent="1" vertex="1">
          <mxGeometry x="806.14" y="739" width="50" height="41" as="geometry" />
        </mxCell>
        <mxCell id="_dXpNEuKJ4LGSrz3KsNT-20" value="" style="strokeWidth=2;html=1;shape=mxgraph.flowchart.database;whiteSpace=wrap;fontFamily=Helvetica;fontSize=11;fontColor=default;labelBackgroundColor=default;" parent="1" vertex="1">
          <mxGeometry x="980" y="700" width="60" height="60" as="geometry" />
        </mxCell>
        <mxCell id="_dXpNEuKJ4LGSrz3KsNT-21" value="" style="shape=image;verticalLabelPosition=bottom;labelBackgroundColor=none;verticalAlign=top;aspect=fixed;imageAspect=0;image=https://dbdb.io/media/logos/tidb-logo_preview.png;clipPath=inset(0% 59.67% 0% 0%);" parent="1" vertex="1">
          <mxGeometry x="1020" y="730" width="33.07" height="31.16" as="geometry" />
        </mxCell>
        <mxCell id="_dXpNEuKJ4LGSrz3KsNT-22" value="New Table + User" style="text;html=1;align=center;verticalAlign=middle;resizable=0;points=[];autosize=1;strokeColor=none;fillColor=none;fontFamily=Helvetica;fontSize=11;fontColor=default;labelBackgroundColor=default;" parent="1" vertex="1">
          <mxGeometry x="955" y="761.16" width="110" height="30" as="geometry" />
        </mxCell>
        <mxCell id="_dXpNEuKJ4LGSrz3KsNT-25" value="CDC Changes" style="text;html=1;align=center;verticalAlign=middle;resizable=0;points=[];autosize=1;strokeColor=none;fillColor=none;fontFamily=Helvetica;fontSize=11;fontColor=default;labelBackgroundColor=default;" parent="1" vertex="1">
          <mxGeometry x="758.0699999999999" y="972" width="90" height="30" as="geometry" />
        </mxCell>
        <mxCell id="_dXpNEuKJ4LGSrz3KsNT-27" style="edgeStyle=orthogonalEdgeStyle;shape=connector;rounded=0;orthogonalLoop=1;jettySize=auto;html=1;strokeColor=default;align=center;verticalAlign=middle;fontFamily=Helvetica;fontSize=11;fontColor=default;labelBackgroundColor=default;endArrow=block;endFill=1;dashed=1;curved=1;exitX=1;exitY=0.5;exitDx=0;exitDy=0;" parent="1" source="_dXpNEuKJ4LGSrz3KsNT-38" target="_dXpNEuKJ4LGSrz3KsNT-28" edge="1">
          <mxGeometry relative="1" as="geometry">
            <mxPoint x="860" y="1100" as="sourcePoint" />
            <mxPoint x="720" y="310" as="targetPoint" />
            <Array as="points">
              <mxPoint x="1150" y="1208" />
              <mxPoint x="1150" y="279" />
            </Array>
          </mxGeometry>
        </mxCell>
        <mxCell id="_dXpNEuKJ4LGSrz3KsNT-30" value="Logs" style="edgeLabel;html=1;align=center;verticalAlign=middle;resizable=0;points=[];fontFamily=Helvetica;fontSize=11;fontColor=default;labelBackgroundColor=default;" parent="_dXpNEuKJ4LGSrz3KsNT-27" vertex="1" connectable="0">
          <mxGeometry x="-0.1678" relative="1" as="geometry">
            <mxPoint y="-253" as="offset" />
          </mxGeometry>
        </mxCell>
        <mxCell id="_dXpNEuKJ4LGSrz3KsNT-34" style="edgeStyle=orthogonalEdgeStyle;shape=connector;rounded=0;orthogonalLoop=1;jettySize=auto;html=1;strokeColor=default;align=center;verticalAlign=middle;fontFamily=Helvetica;fontSize=11;fontColor=default;labelBackgroundColor=default;endArrow=block;endFill=1;" parent="1" target="_dXpNEuKJ4LGSrz3KsNT-32" edge="1">
          <mxGeometry relative="1" as="geometry">
            <mxPoint x="760" y="931" as="sourcePoint" />
            <Array as="points">
              <mxPoint x="690" y="930" />
            </Array>
          </mxGeometry>
        </mxCell>
        <mxCell id="_dXpNEuKJ4LGSrz3KsNT-26" value="" style="shape=image;verticalLabelPosition=bottom;labelBackgroundColor=default;verticalAlign=top;aspect=fixed;imageAspect=0;image=https://cdn4.iconfinder.com/data/icons/database-and-server/100/data_base_-07-512.png;" parent="1" vertex="1">
          <mxGeometry x="762.07" y="890" width="82" height="82" as="geometry" />
        </mxCell>
        <mxCell id="_dXpNEuKJ4LGSrz3KsNT-28" value="&lt;span&gt;Developer&lt;/span&gt;" style="sketch=0;outlineConnect=0;fontColor=#232F3E;gradientColor=none;fillColor=#232F3D;strokeColor=none;dashed=0;verticalLabelPosition=bottom;verticalAlign=top;align=center;html=1;fontSize=12;fontStyle=0;aspect=fixed;pointerEvents=1;shape=mxgraph.aws4.user;" parent="1" vertex="1">
          <mxGeometry x="510" y="240" width="78" height="78" as="geometry" />
        </mxCell>
        <mxCell id="_dXpNEuKJ4LGSrz3KsNT-29" style="edgeStyle=orthogonalEdgeStyle;shape=connector;rounded=0;orthogonalLoop=1;jettySize=auto;html=1;entryX=0.676;entryY=-0.002;entryDx=0;entryDy=0;entryPerimeter=0;strokeColor=default;align=center;verticalAlign=middle;fontFamily=Helvetica;fontSize=11;fontColor=default;labelBackgroundColor=default;endArrow=block;endFill=1;startFill=0;" parent="1" source="_dXpNEuKJ4LGSrz3KsNT-28" target="_dXpNEuKJ4LGSrz3KsNT-9" edge="1">
          <mxGeometry relative="1" as="geometry">
            <Array as="points">
              <mxPoint x="414" y="280" />
            </Array>
          </mxGeometry>
        </mxCell>
        <mxCell id="_dXpNEuKJ4LGSrz3KsNT-31" value="&lt;span style=&quot;font-size: 16px;&quot;&gt;&lt;b&gt;TiDB&lt;/b&gt;&lt;/span&gt;&lt;br&gt;&lt;div&gt;&lt;span style=&quot;font-size: 16px;&quot;&gt;&lt;b&gt;Port 4000&lt;/b&gt;&lt;/span&gt;&lt;/div&gt;" style="text;html=1;align=center;verticalAlign=middle;resizable=0;points=[];autosize=1;strokeColor=none;fillColor=none;" parent="1" vertex="1">
          <mxGeometry x="744.07" y="585" width="100" height="50" as="geometry" />
        </mxCell>
        <mxCell id="_dXpNEuKJ4LGSrz3KsNT-35" style="edgeStyle=orthogonalEdgeStyle;shape=connector;rounded=0;orthogonalLoop=1;jettySize=auto;html=1;strokeColor=default;align=center;verticalAlign=middle;fontFamily=Helvetica;fontSize=11;fontColor=default;labelBackgroundColor=default;endArrow=block;endFill=1;" parent="1" source="_dXpNEuKJ4LGSrz3KsNT-32" edge="1">
          <mxGeometry relative="1" as="geometry">
            <mxPoint x="413.9999999999998" y="1130" as="targetPoint" />
          </mxGeometry>
        </mxCell>
        <mxCell id="_dXpNEuKJ4LGSrz3KsNT-32" value="Kafka" style="shape=image;verticalLabelPosition=bottom;labelBackgroundColor=default;verticalAlign=top;aspect=fixed;imageAspect=0;image=https://images.icon-icons.com/2248/PNG/512/apache_kafka_icon_138937.png;" parent="1" vertex="1">
          <mxGeometry x="343" y="860" width="142" height="142" as="geometry" />
        </mxCell>
        <mxCell id="_dXpNEuKJ4LGSrz3KsNT-33" value="&lt;span style=&quot;font-size: 16px;&quot;&gt;&lt;b&gt;Kafka&lt;/b&gt;&lt;/span&gt;&lt;div&gt;&lt;span style=&quot;font-size: 16px;&quot;&gt;&lt;b&gt;Port 9092&lt;/b&gt;&lt;/span&gt;&lt;/div&gt;" style="text;html=1;align=center;verticalAlign=middle;resizable=0;points=[];autosize=1;strokeColor=none;fillColor=none;" parent="1" vertex="1">
          <mxGeometry x="480" y="860" width="100" height="50" as="geometry" />
        </mxCell>
        <mxCell id="_dXpNEuKJ4LGSrz3KsNT-39" style="edgeStyle=orthogonalEdgeStyle;shape=connector;rounded=0;orthogonalLoop=1;jettySize=auto;html=1;strokeColor=default;align=center;verticalAlign=middle;fontFamily=Helvetica;fontSize=11;fontColor=default;labelBackgroundColor=default;endArrow=block;endFill=1;" parent="1" source="_dXpNEuKJ4LGSrz3KsNT-36" target="_dXpNEuKJ4LGSrz3KsNT-32" edge="1">
          <mxGeometry relative="1" as="geometry" />
        </mxCell>
        <mxCell id="_dXpNEuKJ4LGSrz3KsNT-36" value="Zookeeper" style="shape=image;verticalLabelPosition=bottom;labelBackgroundColor=default;verticalAlign=top;aspect=fixed;imageAspect=0;image=https://images.icon-icons.com/2699/PNG/512/apache_zookeeper_logo_icon_169571.png;" parent="1" vertex="1">
          <mxGeometry x="209" y="896.5" width="69" height="69" as="geometry" />
        </mxCell>
        <mxCell id="_dXpNEuKJ4LGSrz3KsNT-37" value="&lt;span style=&quot;font-size: 16px;&quot;&gt;&lt;b&gt;Zookeeper&lt;/b&gt;&lt;/span&gt;&lt;div&gt;&lt;span style=&quot;font-size: 16px;&quot;&gt;&lt;b&gt;Port 2181&lt;/b&gt;&lt;/span&gt;&lt;/div&gt;" style="text;html=1;align=center;verticalAlign=middle;resizable=0;points=[];autosize=1;strokeColor=none;fillColor=none;" parent="1" vertex="1">
          <mxGeometry x="100" y="906" width="100" height="50" as="geometry" />
        </mxCell>
        <mxCell id="_dXpNEuKJ4LGSrz3KsNT-38" value="Kafka Consumer" style="shape=image;verticalLabelPosition=bottom;labelBackgroundColor=default;verticalAlign=top;aspect=fixed;imageAspect=0;image=https://images.icon-icons.com/2248/PNG/512/apache_kafka_icon_138937.png;" parent="1" vertex="1">
          <mxGeometry x="356" y="1150" width="115" height="115" as="geometry" />
        </mxCell>
        <mxCell id="_dXpNEuKJ4LGSrz3KsNT-40" value="check status" style="text;html=1;align=center;verticalAlign=middle;resizable=0;points=[];autosize=1;strokeColor=none;fillColor=none;fontFamily=Helvetica;fontSize=11;fontColor=default;labelBackgroundColor=default;" parent="1" vertex="1">
          <mxGeometry x="260" y="908" width="80" height="30" as="geometry" />
        </mxCell>
        <mxCell id="w0HFjJI_XavznoVxSNw2-1" value="" style="image;sketch=0;aspect=fixed;html=1;points=[];align=center;fontSize=12;image=img/lib/mscae/Docker.svg;fontFamily=Helvetica;fontColor=default;labelBackgroundColor=default;" vertex="1" parent="1">
          <mxGeometry x="421" y="956" width="50" height="41" as="geometry" />
        </mxCell>
        <mxCell id="w0HFjJI_XavznoVxSNw2-2" value="" style="image;sketch=0;aspect=fixed;html=1;points=[];align=center;fontSize=12;image=img/lib/mscae/Docker.svg;fontFamily=Helvetica;fontColor=default;labelBackgroundColor=default;" vertex="1" parent="1">
          <mxGeometry x="255" y="943.3" width="35" height="28.7" as="geometry" />
        </mxCell>
      </root>
    </mxGraphModel>
  </diagram>
</mxfile>
